<svg width="157" height="301" viewBox="0 0 157 301" fill="none" xmlns="http://www.w3.org/2000/svg">
<path fill-rule="evenodd" clip-rule="evenodd" d="M415.356 253.374C398.353 237.094 375.165 217.005 349.271 211.074C341.165 209.218 332.793 208.748 324.263 210.216C318.142 208.968 311.875 208.525 305.507 209.121C304.898 208.965 304.287 208.817 303.674 208.677C299.061 207.62 294.361 207.013 289.594 206.956C287.337 206.217 285.055 205.578 282.753 205.051C282.035 204.886 281.316 204.733 280.594 204.591C264.412 189.76 243.83 173.735 221.176 168.547C208.22 165.579 194.582 166.155 180.707 172.524C166.834 178.893 152.746 191.043 138.869 211.186C106.548 258.104 105.859 301.062 105.328 334.115L105.328 334.117L105.328 334.144C105.279 337.203 105.231 340.177 105.16 343.061C104.737 360.11 103.485 373.949 96.3555 383.749C89.2405 393.529 76.2058 399.363 52.0088 400.198L52.0084 400.787C76.2546 399.95 89.5114 394.103 96.7881 384.101C104.05 374.12 105.29 360.078 105.712 343.057C105.784 340.161 105.832 337.177 105.881 334.109C106.413 301.063 107.101 258.28 139.311 211.525C153.143 191.446 167.156 179.379 180.911 173.065C194.664 166.751 208.182 166.177 221.043 169.123C243.231 174.205 263.454 189.76 279.505 204.385C278.983 204.29 278.459 204.202 277.934 204.119C277.079 203.752 276.219 203.398 275.356 203.057C262.558 193.237 248.052 184.638 232.579 181.094C219.623 178.126 205.985 178.702 192.11 185.072C178.237 191.44 164.149 203.59 150.272 223.733C117.951 270.651 117.262 313.609 116.732 346.662L116.731 346.668L116.731 346.677C116.682 349.741 116.634 352.719 116.563 355.608C116.14 372.657 114.889 386.496 107.759 396.296C100.644 406.076 87.609 411.91 63.4119 412.745L63.4115 413.334C87.6577 412.497 100.915 406.65 108.191 396.648C115.453 386.667 116.694 372.625 117.115 355.604C117.186 352.738 117.234 349.785 117.283 346.75L117.283 346.725L117.284 346.714L117.284 346.707L117.284 346.687L117.284 346.681L117.284 346.662L117.285 346.657C117.816 313.61 118.504 270.828 150.714 224.072C164.546 203.993 178.559 191.926 192.314 185.612C206.067 179.298 219.585 178.724 232.446 181.67C247.183 185.046 261.053 193.041 273.41 202.315C273.232 202.25 273.053 202.185 272.875 202.12C264.608 197.331 255.858 193.509 246.775 191.428C233.819 188.461 220.181 189.036 206.306 195.406C192.433 201.775 178.344 213.925 164.468 234.068C132.147 280.985 131.458 323.944 130.927 356.997C130.878 360.066 130.83 363.049 130.758 365.943C130.336 382.992 129.084 396.831 121.954 406.631C114.839 416.411 101.805 422.245 77.6075 423.08L77.6071 423.669C101.853 422.832 115.11 416.984 122.387 406.983C129.649 397.001 130.889 382.96 131.311 365.939C131.382 363.073 131.43 360.12 131.479 357.085L131.479 357.059L131.479 357.049L131.479 357.042L131.48 357.022L131.48 357.016L131.48 356.996L131.48 356.991C132.012 323.945 132.7 281.162 164.91 234.407C178.742 214.328 192.754 202.261 206.51 195.946C220.263 189.633 233.781 189.059 246.642 192.005C254.668 193.843 262.437 197.052 269.844 201.091C267.791 200.437 265.719 199.866 263.629 199.388C250.673 196.42 237.035 196.996 223.16 203.366C209.287 209.734 195.198 221.884 181.322 242.027C149.001 288.945 148.312 331.903 147.781 364.956C147.732 368.025 147.684 371.009 147.612 373.902C147.19 390.951 145.938 404.79 138.808 414.59C131.693 424.37 118.659 430.204 94.4616 431.039L94.4612 431.628C118.707 430.791 131.964 424.944 139.241 414.942C146.503 404.961 147.743 390.919 148.165 373.898C148.236 371.032 148.284 368.079 148.333 365.044L148.333 365.019L148.333 365.008L148.333 365.001L148.334 364.981L148.334 364.975L148.334 364.956L148.334 364.951C148.866 331.904 149.554 289.122 181.764 242.366C195.596 222.287 209.609 210.22 223.364 203.906C237.117 197.592 250.635 197.018 263.496 199.964C266.584 200.672 269.633 201.582 272.639 202.664C273.199 202.988 273.757 203.318 274.312 203.651C263.926 202.598 253.178 204.027 242.284 209.028C228.411 215.397 214.322 227.547 200.446 247.69C168.125 294.608 167.436 337.566 166.905 370.619L166.905 370.633C166.856 373.697 166.808 376.676 166.736 379.565C166.314 396.614 165.062 410.453 157.932 420.253C150.817 430.033 137.783 435.867 113.586 436.702L113.585 437.291C137.831 436.454 151.088 430.607 158.365 420.605C165.627 410.624 166.867 396.582 167.289 379.561C167.361 376.666 167.409 373.681 167.458 370.613C167.99 337.567 168.678 294.785 200.888 248.029C214.72 227.95 228.733 215.883 242.488 209.569C253.73 204.408 264.814 203.082 275.511 204.379C276.512 204.994 277.506 205.622 278.491 206.263C279.039 206.702 279.584 207.143 280.125 207.586C274.545 208.405 268.895 210.043 263.205 212.655C249.332 219.023 235.244 231.173 221.367 251.317C189.046 298.234 188.357 341.192 187.827 374.245C187.777 377.314 187.73 380.298 187.658 383.191C187.235 400.24 185.984 414.08 178.854 423.88C171.739 433.659 158.704 439.493 134.507 440.328L134.507 440.917C158.753 440.08 172.01 434.233 179.286 424.231C186.548 414.25 187.789 400.208 188.211 383.187C188.282 380.321 188.329 377.369 188.378 374.333L188.379 374.308L188.379 374.297L188.379 374.291L188.379 374.27L188.379 374.264L188.38 374.245L188.38 374.24C188.911 341.193 189.6 298.411 221.809 251.655C235.641 231.576 249.654 219.51 263.409 213.195C269.239 210.519 275.026 208.874 280.739 208.091C283.007 209.96 285.213 211.852 287.353 213.741C286.733 214.003 286.113 214.277 285.492 214.562C271.62 220.93 257.531 233.08 243.655 253.223C211.334 300.141 210.644 343.099 210.114 376.152L210.114 376.153C210.065 379.222 210.017 382.205 209.945 385.098C209.523 402.147 208.271 415.986 201.141 425.786C194.026 435.566 180.991 441.4 156.794 442.235L156.794 442.824C181.04 441.987 194.297 436.14 201.574 426.138C208.836 416.157 210.076 402.115 210.498 385.094C210.569 382.204 210.617 379.226 210.667 376.164L210.667 376.147L210.667 376.147C211.199 343.1 211.887 300.318 244.097 253.562C257.929 233.483 271.941 221.416 285.697 215.102C286.409 214.775 287.121 214.463 287.833 214.166C290.884 216.873 293.799 219.573 296.563 222.194C286.691 229.227 276.775 239.473 266.964 253.714C234.643 300.631 233.953 343.59 233.423 376.642L233.423 376.649L233.423 376.655L233.423 376.661C233.374 379.723 233.326 382.701 233.254 385.589C232.832 402.638 231.58 416.477 224.45 426.277C217.335 436.056 204.3 441.891 180.103 442.726L180.103 443.315C204.349 442.478 217.606 436.63 224.883 426.629C232.145 416.647 233.385 402.606 233.807 385.585C233.879 382.691 233.927 379.709 233.976 376.643L233.976 376.637C234.508 343.59 235.196 300.808 267.406 254.053C277.226 239.797 287.137 229.58 296.983 222.593C297.422 223.01 297.856 223.425 298.287 223.838L298.664 223.393C298.269 223.015 297.87 222.634 297.468 222.252C297.838 221.993 298.208 221.739 298.578 221.49C303.56 225.763 308.213 230.085 312.483 234.172L312.86 233.728C308.632 229.68 304.021 225.396 299.081 221.152C300.183 220.42 301.284 219.728 302.385 219.075C312.431 226.393 321.526 234.653 329.337 242.132L329.714 241.687C321.963 234.266 312.927 226.053 302.935 218.751C304.669 217.741 306.4 216.826 308.127 216.003C323.542 224.849 337.311 237.119 348.461 247.795L348.838 247.35C337.781 236.764 324.108 224.566 308.776 215.698C308.853 215.663 308.929 215.627 309.006 215.592C311.178 214.595 313.344 213.741 315.502 213.022C336.411 221.358 355.057 237.705 369.382 251.421L369.759 250.976C355.589 237.409 337.124 221.197 316.376 212.738C319.009 211.903 321.63 211.268 324.237 210.815C324.769 210.924 325.299 211.039 325.829 211.16C351.569 217.056 374.664 237.045 391.67 253.328L392.047 252.883C375.044 236.604 351.856 216.515 325.962 210.584L325.847 210.558C333.78 209.403 341.573 209.918 349.138 211.651C374.878 217.547 397.973 237.536 414.979 253.818L415.356 253.374ZM280.334 205.142L280.165 205.11C280.254 205.151 280.343 205.192 280.432 205.233L280.334 205.142ZM283.206 207.806C284.462 208.982 285.688 210.145 286.884 211.291L287.261 210.846C286.193 209.824 285.1 208.786 283.984 207.737C284.052 207.732 284.12 207.727 284.188 207.721C286.79 209.058 289.349 210.501 291.862 212.03C290.938 212.341 290.014 212.677 289.087 213.037C286.791 211.286 284.441 209.576 282.04 207.928C282.429 207.883 282.818 207.842 283.206 207.806ZM282.292 206.952L282.636 207.272C282.192 207.318 281.748 207.369 281.304 207.425C280.48 206.867 279.651 206.316 278.816 205.773C278.34 205.392 277.862 205.012 277.382 204.633C277.512 204.652 277.643 204.672 277.773 204.693C279.154 205.286 280.523 205.913 281.882 206.571C282.019 206.698 282.156 206.825 282.292 206.952ZM282.196 206.068C281.944 205.835 281.692 205.601 281.438 205.367C281.833 205.45 282.226 205.537 282.62 205.627C284.308 206.014 285.984 206.461 287.649 206.964C286.539 206.986 285.427 207.038 284.311 207.122C283.609 206.763 282.904 206.411 282.196 206.068ZM287.951 213.492C286.55 212.252 285.12 211.01 283.662 209.773C285.282 210.921 286.879 212.095 288.451 213.289C288.285 213.356 288.118 213.423 287.951 213.492ZM297.047 221.852C294.321 219.265 291.445 216.597 288.433 213.919L288.552 213.871L288.648 213.833C288.712 213.807 288.777 213.781 288.842 213.755L288.988 213.698C292.14 216.109 295.191 218.598 298.129 221.106C297.768 221.35 297.408 221.599 297.047 221.852ZM298.631 220.767C299.715 220.043 300.799 219.358 301.881 218.709C298.84 216.511 295.713 214.401 292.509 212.427C291.55 212.741 290.589 213.082 289.626 213.45C292.732 215.835 295.738 218.293 298.631 220.767ZM292.594 211.789C290.21 210.326 287.783 208.938 285.318 207.644C286.714 207.562 288.105 207.53 289.491 207.545C292.098 208.401 294.674 209.39 297.214 210.493C295.678 210.859 294.138 211.29 292.594 211.789ZM302.43 218.384C299.449 216.221 296.385 214.142 293.245 212.191C294.87 211.682 296.491 211.248 298.106 210.885C301.304 212.311 304.444 213.915 307.519 215.657C305.826 216.477 304.129 217.385 302.43 218.384ZM308.545 215.171L308.655 215.119L308.802 215.052C310.761 214.152 312.717 213.368 314.666 212.693C311.638 211.521 308.563 210.518 305.448 209.717C303.335 209.918 301.211 210.235 299.078 210.676C302.164 212.083 305.196 213.652 308.166 215.348C308.292 215.288 308.418 215.229 308.545 215.171ZM298.178 210.271C300.053 209.857 301.921 209.538 303.78 209.309L303.678 209.285L303.541 209.253C299.579 208.346 295.554 207.772 291.479 207.598C293.738 208.396 295.971 209.292 298.178 210.271ZM315.535 212.399C312.796 211.314 310.017 210.365 307.204 209.576C312.439 209.234 317.604 209.59 322.674 210.512C320.305 210.986 317.925 211.611 315.535 212.399ZM212.357 154.177C238.251 160.108 261.439 180.197 278.442 196.476L278.065 196.921C261.059 180.638 237.964 160.649 212.224 154.753C199.363 151.807 185.845 152.381 172.092 158.695C158.337 165.009 144.324 177.076 130.492 197.155C98.2822 243.911 97.5939 286.693 97.0623 319.739C97.0129 322.807 96.9649 325.792 96.8931 328.687C96.4714 345.708 95.2309 359.75 87.9691 369.731C80.6923 379.733 67.4354 385.58 43.1893 386.417L43.1897 385.828C67.3867 384.993 80.4214 379.159 87.5364 369.379C94.6664 359.579 95.918 345.74 96.3405 328.691C96.4121 325.8 96.46 322.819 96.5091 319.753L96.5093 319.745C97.0397 286.692 97.729 243.734 130.05 196.816C143.926 176.673 158.015 164.523 171.888 158.154C185.763 151.785 199.401 151.209 212.357 154.177ZM271.727 180.765C254.724 164.486 231.537 144.397 205.642 138.466C192.686 135.498 179.048 136.074 165.173 142.443C151.3 148.812 137.212 160.962 123.335 181.105C91.0144 228.023 90.3251 270.981 89.7947 304.034C89.7454 307.103 89.6975 310.087 89.6259 312.98C89.2034 330.029 87.9518 343.868 80.8218 353.668C73.7068 363.448 60.6721 369.282 36.475 370.117L36.4746 370.706C60.7209 369.869 73.9777 364.022 81.2544 354.02C88.5163 344.039 89.7567 329.997 90.1785 312.976C90.25 310.092 90.2979 307.12 90.3471 304.064L90.3476 304.034L90.3477 304.029C90.8793 270.982 91.5676 228.2 123.777 181.444C137.609 161.365 151.622 149.298 165.377 142.984C179.13 136.67 192.648 136.096 205.509 139.042C231.25 144.938 254.345 164.927 271.35 181.21L271.727 180.765ZM200.442 121.859C226.336 127.79 249.524 147.879 266.527 164.158L266.15 164.603C249.144 148.321 226.049 128.331 200.308 122.435C187.447 119.49 173.93 120.063 160.177 126.377C146.421 132.691 132.409 144.758 118.577 164.837C86.3668 211.593 85.6785 254.375 85.1469 287.422C85.0975 290.49 85.0495 293.474 84.9778 296.369C84.556 313.39 83.3155 327.432 76.0537 337.413C68.7769 347.415 55.5201 353.262 31.2739 354.099L31.2742 353.51C55.4713 352.675 68.506 346.841 75.621 337.061C82.751 327.261 84.0026 313.422 84.4251 296.373C84.4968 293.48 84.5447 290.496 84.5939 287.427C85.1243 254.374 85.8136 211.416 118.135 164.498C132.011 144.355 146.1 132.205 159.972 125.837C173.848 119.467 187.485 118.891 200.442 121.859ZM262.268 147.025C245.265 130.746 222.077 110.657 196.183 104.726C183.227 101.758 169.589 102.334 155.714 108.704C141.841 115.072 127.753 127.222 113.876 147.365C81.5551 194.283 80.8658 237.241 80.3354 270.294C80.2862 273.363 80.2383 276.347 80.1666 279.24C79.7441 296.289 78.4925 310.128 71.3625 319.928C64.2475 329.708 51.2128 335.542 27.0157 336.377L27.0153 336.966C51.2615 336.129 64.5184 330.282 71.7951 320.28C79.057 310.299 80.2975 296.257 80.7192 279.236C80.791 276.341 80.839 273.357 80.8884 270.289C81.42 237.242 82.1083 194.46 114.318 147.704C128.15 127.625 142.163 115.558 155.918 109.244C169.671 102.93 183.189 102.356 196.05 105.302C221.79 111.198 244.885 131.187 261.891 147.47L262.268 147.025ZM192.385 87.3431C218.279 93.2742 241.467 113.363 258.47 129.643L258.093 130.087C241.088 113.805 217.993 93.8155 192.252 87.9196C179.391 84.9738 165.873 85.5476 152.12 91.861C138.365 98.1757 124.352 110.242 110.52 130.321C78.3106 177.077 77.6223 219.859 77.0906 252.906C77.0413 255.974 76.9932 258.958 76.9215 261.854C76.4997 278.874 75.2592 292.916 67.9974 302.897C60.7206 312.899 47.4638 318.747 23.2176 319.583L23.218 318.994C47.415 318.159 60.4497 312.325 67.5647 302.546C74.6947 292.746 75.9463 278.907 76.3688 261.857C76.4405 258.964 76.4884 255.98 76.5376 252.911C77.068 219.859 77.7574 176.9 110.078 129.983C123.955 109.84 138.043 97.6894 151.916 91.3208C165.791 84.9511 179.429 84.3755 192.385 87.3431ZM254.75 112.22C237.747 95.9408 214.559 75.8518 188.665 69.9208C175.709 66.9532 162.071 67.5288 148.196 73.8985C134.323 80.267 120.235 92.4174 106.358 112.56C74.0371 159.478 73.3478 202.436 72.8174 235.489C72.7682 238.558 72.7203 241.542 72.6486 244.435C72.2261 261.484 70.9745 275.323 63.8445 285.123C56.7295 294.903 43.6948 300.737 19.4977 301.572L19.4974 302.161C43.7436 301.324 57.0004 295.477 64.2772 285.475C71.539 275.494 72.7795 261.452 73.2013 244.431C73.273 241.536 73.321 238.552 73.3704 235.484C73.902 202.437 74.5903 159.655 106.8 112.899C120.632 92.8202 134.645 80.7534 148.4 74.4387C162.153 68.1252 175.671 67.5515 188.532 70.4973C214.273 76.3931 237.367 96.3824 254.373 112.665L254.75 112.22ZM184.734 52.6083C210.629 58.5393 233.816 78.6283 250.819 94.9079L250.443 95.3522C233.437 79.0699 210.342 59.0806 184.601 53.1848C171.74 50.2389 158.222 50.8127 144.47 57.1262C130.714 63.4409 116.702 75.5076 102.869 95.5865C70.6597 142.342 69.9715 185.124 69.4398 218.171L69.4397 218.176L69.4392 218.207C69.39 221.262 69.3421 224.234 69.2707 227.119C68.8489 244.139 67.6084 258.181 60.3466 268.162C53.0698 278.164 39.813 284.012 15.5668 284.849L15.5672 284.259C39.7642 283.424 52.7989 277.59 59.9139 267.811C67.0439 258.011 68.2955 244.172 68.718 227.123C68.7896 224.232 68.8374 221.252 68.8866 218.186L68.8867 218.182L68.8868 218.176C69.4172 185.124 70.1065 142.165 102.428 95.2479C116.304 75.1049 130.393 62.9545 144.265 56.586C158.141 50.2163 171.778 49.6407 184.734 52.6083ZM246.467 77.826C229.464 61.5465 206.276 41.4575 180.382 35.5265C167.426 32.5588 153.788 33.1344 139.913 39.5042C126.04 45.8727 111.952 58.023 98.0753 78.1661C65.7543 125.083 65.0649 168.042 64.5345 201.094C64.4853 204.164 64.4374 207.147 64.3657 210.041C63.9432 227.09 62.6916 240.929 55.5617 250.729C48.4466 260.508 35.4119 266.343 11.2149 267.178L11.2145 267.767C35.4607 266.93 48.7175 261.082 55.9943 251.081C63.2561 241.099 64.4966 227.058 64.9184 210.037C64.9902 207.141 65.0382 204.157 65.0875 201.089C65.6192 168.043 66.3075 125.26 98.5171 78.5047C112.349 58.4258 126.362 46.3591 140.117 40.0444C153.87 33.7309 167.388 33.1571 180.249 36.1029C205.99 41.9988 229.084 61.9881 246.09 78.2704L246.467 77.826ZM175.463 18.7619C201.357 24.6929 224.545 44.7819 241.548 61.0615L241.171 61.5058C224.165 45.2235 201.07 25.2342 175.329 19.3384C162.468 16.3925 148.951 16.9663 135.198 23.2798C121.442 29.5945 107.43 41.6613 93.5976 61.7401C61.3879 108.496 60.6996 151.278 60.1679 184.325C60.1186 187.393 60.0706 190.377 59.9988 193.272C59.577 210.293 58.3365 224.335 51.0747 234.316C43.7979 244.318 30.5411 250.165 6.29492 251.002L6.2953 250.413C30.4924 249.578 43.5271 243.744 50.6421 233.965C57.7721 224.164 59.0236 210.325 59.4461 193.276C59.5179 190.383 59.5657 187.399 59.615 184.33C60.1454 151.277 60.8347 108.319 93.1558 61.4015C107.032 41.2585 121.121 29.1081 134.993 22.7396C148.869 16.3699 162.506 15.7943 175.463 18.7619ZM235.963 44.675C218.96 28.3955 195.773 8.30652 169.878 2.37546C156.922 -0.592159 143.285 -0.0165436 129.409 6.35319C115.536 12.7217 101.448 24.872 87.5716 45.0151C55.2505 91.9325 54.5612 134.891 54.0308 167.943C53.9815 171.013 53.9336 173.996 53.862 176.89C53.4394 193.939 52.1879 207.778 45.0579 217.578C37.9429 227.358 24.9082 233.192 0.711097 234.027L0.710711 234.616C24.9569 233.779 38.2137 227.931 45.4905 217.93C52.7523 207.948 53.9928 193.907 54.4146 176.886C54.4864 173.99 54.5344 171.006 54.5837 167.938C55.1154 134.892 55.8037 92.1094 88.0134 45.3537C101.846 25.2748 115.858 13.2081 129.614 6.89339C143.366 0.579902 156.884 0.00611943 169.745 2.95195C195.486 8.84781 218.581 28.8371 235.587 45.1194L235.963 44.675Z" fill="url(#paint0_radial_39_319)" fill-opacity="0.58"/>
<defs>
<radialGradient id="paint0_radial_39_319" cx="0" cy="0" r="1" gradientUnits="userSpaceOnUse" gradientTransform="translate(161.995 193.56) rotate(133.346) scale(202.361 204.517)">
<stop stop-color="white"/>
<stop offset="1" stop-color="#1E1E1E" stop-opacity="0"/>
<stop offset="1" stop-color="#0E0E35" stop-opacity="0"/>
<stop offset="1" stop-color="white" stop-opacity="0"/>
</radialGradient>
</defs>
</svg>
