<svg width="196" height="59" viewBox="0 0 196 59" fill="none" xmlns="http://www.w3.org/2000/svg">
<path d="M29.3926 0C13.1599 0 0 13.2078 0 29.5002C0 45.7932 13.1599 59 29.3926 59C45.6271 59 58.7856 45.7932 58.7856 29.5002C58.7856 13.2089 45.6271 0.00140909 29.3923 0.00140909L29.3926 0ZM42.8719 42.5477C42.3454 43.4143 41.2152 43.6891 40.3518 43.1572C33.4507 38.9263 24.7631 37.9682 14.5319 40.3143C13.5459 40.5398 12.5632 39.9198 12.3386 38.9299C12.1129 37.94 12.7282 36.9536 13.7165 36.7281C24.913 34.1608 34.517 35.2662 42.2647 40.0184C43.1281 40.5503 43.4019 41.6811 42.8719 42.5477ZM46.4695 34.5152C45.8061 35.5973 44.3952 35.939 43.3176 35.2733C35.4169 30.3992 23.3736 28.9876 14.0286 31.8347C12.8166 32.2021 11.5366 31.5166 11.1687 30.3023C10.8037 29.0859 11.4871 27.8036 12.6969 27.4337C23.3714 24.1829 36.6419 25.7576 45.7149 31.3535C46.7924 32.0193 47.1328 33.4351 46.4695 34.5152ZM46.7783 26.1508C37.3052 20.5034 21.6758 19.9842 12.6313 22.7393C11.1789 23.1814 9.64299 22.3585 9.20285 20.9008C8.76271 19.4424 9.58191 17.9019 11.0353 17.4587C21.4179 14.2953 38.6776 14.9065 49.5841 21.4049C50.8933 22.1831 51.3215 23.8765 50.5458 25.1859C49.7737 26.497 48.0819 26.9293 46.7797 26.1508H46.7783ZM79.9676 27.2329C74.8923 26.0183 73.9903 25.1658 73.9903 23.3745C73.9903 21.6821 75.5767 20.5432 77.9389 20.5432C80.2273 20.5432 82.4947 21.4081 84.8744 23.1885C84.9445 23.2424 85.0358 23.2639 85.1236 23.2498C85.2148 23.2364 85.292 23.1874 85.3447 23.1138L87.8226 19.608C87.9244 19.4635 87.8963 19.2645 87.7595 19.1542C84.927 16.874 81.7401 15.7653 78.0126 15.7653C72.5337 15.7653 68.7044 19.0658 68.7044 23.788C68.7044 28.852 72.0072 30.6451 77.7142 32.0292C82.5684 33.1519 83.3897 34.0924 83.3897 35.7735C83.3897 37.637 81.733 38.796 79.0655 38.796C76.1032 38.796 73.6849 37.792 70.9823 35.4459C70.9156 35.386 70.8244 35.3613 70.7402 35.3648C70.6489 35.3719 70.5682 35.4142 70.512 35.4811L67.7322 38.7995C67.6164 38.9404 67.6304 39.1447 67.7638 39.2645C70.9086 42.0827 74.7765 43.5693 78.9532 43.5693C84.8568 43.5693 88.672 40.3319 88.672 35.319C88.6825 31.0893 86.159 28.7467 79.9781 27.2375L79.9676 27.2329ZM102.031 22.2095C99.4719 22.2095 97.373 23.2212 95.6391 25.2944V22.9609C95.6391 22.7767 95.4917 22.6266 95.3092 22.6266H90.7639C90.5814 22.6266 90.434 22.7767 90.434 22.9609V48.8887C90.434 49.0719 90.5814 49.2233 90.7639 49.2233H95.3092C95.4917 49.2233 95.6391 49.0719 95.6391 48.8887V40.7053C97.373 42.6534 99.4719 43.6081 102.031 43.6081C106.786 43.6081 111.602 39.9338 111.602 32.9098C111.609 25.8844 106.793 22.2092 102.034 22.2092L102.031 22.2095ZM106.316 32.9098C106.316 36.4851 104.122 38.9827 100.978 38.9827C97.8714 38.9827 95.5268 36.3723 95.5268 32.9098C95.5268 29.447 97.8714 26.8373 100.978 26.8373C104.07 26.837 106.316 29.3906 106.316 32.9098ZM123.939 22.2095C117.814 22.2095 113.016 26.9427 113.016 32.9863C113.016 38.9651 117.783 43.6468 123.865 43.6468C130.011 43.6468 134.823 38.9299 134.823 32.9098C134.823 26.9103 130.043 22.2102 123.939 22.2102V22.2095ZM123.939 39.0179C120.682 39.0179 118.225 36.39 118.225 32.9081C118.225 29.4103 120.598 26.8722 123.865 26.8722C127.144 26.8722 129.615 29.4991 129.615 32.9845C129.615 36.4816 127.228 39.0179 123.939 39.0179ZM147.901 22.6266H142.899V17.4954C142.899 17.3115 142.752 17.1614 142.569 17.1614H138.024C137.842 17.1614 137.691 17.3115 137.691 17.4954V22.6266H135.508C135.325 22.6266 135.178 22.7767 135.178 22.9609V26.8807C135.178 27.0646 135.325 27.215 135.508 27.215H137.691V37.3587C137.691 41.4557 139.723 43.5341 143.735 43.5341C145.363 43.5341 146.715 43.1959 147.989 42.4702C148.094 42.4139 148.157 42.3011 148.157 42.1814V38.4472C148.157 38.3345 148.097 38.2253 147.999 38.1654C147.901 38.102 147.778 38.0985 147.676 38.1513C146.802 38.5917 145.956 38.796 145.009 38.796C143.552 38.796 142.899 38.1302 142.899 36.6436V27.2167H147.901C148.083 27.2167 148.231 27.0667 148.231 26.8824V22.963C148.238 22.7788 148.09 22.6287 147.904 22.6287L147.901 22.6266ZM165.324 22.6467V22.0165C165.324 20.1624 166.033 19.3356 167.619 19.3356C168.567 19.3356 169.329 19.5245 170.181 19.8098C170.287 19.8429 170.396 19.8264 170.48 19.7633C170.568 19.7003 170.617 19.5991 170.617 19.4921V15.6487C170.617 15.5018 170.525 15.3719 170.382 15.3285C169.483 15.0597 168.332 14.7839 166.605 14.7839C162.411 14.7839 160.189 17.1561 160.189 21.6416V22.6069H158.006C157.823 22.6069 157.672 22.7569 157.672 22.9408V26.8807C157.672 27.0646 157.823 27.215 158.006 27.215H160.189V42.8577C160.189 43.0444 160.34 43.1924 160.522 43.1924H165.064C165.25 43.1924 165.398 43.0444 165.398 42.8577V27.216H169.641L176.141 42.8577C175.404 44.4993 174.678 44.8269 173.688 44.8269C172.888 44.8269 172.042 44.5874 171.182 44.1118C171.101 44.0695 171.003 44.0625 170.919 44.0872C170.831 44.1189 170.757 44.1823 170.722 44.2668L169.181 47.6592C169.107 47.8213 169.171 48.008 169.325 48.0925C170.933 48.9662 172.382 49.3396 174.176 49.3396C177.531 49.3396 179.388 47.7684 181.02 43.5482L188.903 23.1032C188.945 23.0004 188.931 22.8841 188.868 22.7929C188.808 22.7023 188.707 22.6477 188.598 22.6477H183.866C183.723 22.6477 183.596 22.7383 183.551 22.8718L178.703 36.7634L173.396 22.8626C173.347 22.7333 173.225 22.6477 173.088 22.6477H165.324V22.6467ZM155.222 22.6266H150.677C150.495 22.6266 150.344 22.7767 150.344 22.9609V42.8577C150.344 43.0444 150.495 43.1924 150.677 43.1924H155.222C155.405 43.1924 155.556 43.0444 155.556 42.8577V22.9623C155.556 22.7781 155.408 22.628 155.222 22.628V22.6266ZM152.976 13.5664C151.176 13.5664 149.715 15.0291 149.715 16.8359C149.715 18.6438 151.176 20.1082 152.976 20.1082C154.777 20.1082 156.233 18.6438 156.233 16.8359C156.233 15.0294 154.773 13.5664 152.976 13.5664ZM192.785 29.0243C190.988 29.0243 189.587 27.5746 189.587 25.8143C189.587 24.054 191.005 22.5878 192.803 22.5878C194.6 22.5878 196 24.0371 196 25.796C196 27.5563 194.582 29.0243 192.785 29.0243ZM192.803 22.907C191.163 22.907 189.924 24.2139 189.924 25.8143C189.924 27.414 191.156 28.7033 192.785 28.7033C194.424 28.7033 195.663 27.3974 195.663 25.796C195.663 24.1963 194.431 22.907 192.803 22.907ZM193.512 26.1261L194.417 27.3971H193.652L192.838 26.2311H192.139V27.3971H191.5V24.0279H192.996C193.778 24.0279 194.291 24.4285 194.291 25.1027C194.294 25.6551 193.975 25.9926 193.515 26.1261H193.512ZM192.971 24.606H192.139V25.6717H192.971C193.385 25.6717 193.634 25.4677 193.634 25.1383C193.634 24.7917 193.385 24.606 192.971 24.606Z" fill="#62CD5D"/>
</svg>
