<svg width="167" height="129" viewBox="0 0 167 129" fill="none" xmlns="http://www.w3.org/2000/svg">
<path fill-rule="evenodd" clip-rule="evenodd" d="M157.709 -188.882C147.64 -173.797 135.501 -153.494 134.476 -133.034C134.155 -126.631 134.922 -120.212 137.181 -113.932C137.056 -109.122 137.561 -104.309 138.867 -99.5587C138.831 -99.078 138.801 -98.5972 138.777 -98.1162C138.594 -94.4727 138.764 -90.8237 139.36 -87.1981C139.103 -85.3876 138.925 -83.5723 138.834 -81.7557C138.806 -81.1941 138.786 -80.6323 138.775 -80.0704C129.696 -65.8023 120.299 -48.0295 119.403 -30.1354C118.889 -19.8956 121.159 -9.6121 127.864 0.0732928C134.566 9.75631 145.687 18.8217 162.841 26.6501C202.797 44.8848 235.504 39.6382 260.654 35.6037C262.989 35.2291 265.259 34.8649 267.464 34.531C280.46 32.5626 291.105 31.6599 299.475 35.7429C307.821 39.8148 313.991 48.8967 317.872 67.1382L318.452 67.0359C314.561 48.7464 308.339 39.4481 299.745 35.2556C291.175 31.0744 280.332 32.0233 267.364 33.9874C265.157 34.3217 262.886 34.6858 260.552 35.0602C235.408 39.0923 202.875 44.3093 163.097 26.1561C146.014 18.36 134.989 9.35491 128.36 -0.222021C121.732 -9.79657 119.485 -19.9624 119.993 -30.1048C120.866 -47.524 129.865 -64.8621 138.764 -78.9652C138.764 -78.6362 138.768 -78.3073 138.774 -77.9783C138.611 -77.2844 138.459 -76.5891 138.317 -75.8927C132.583 -64.8612 128.004 -52.6947 127.392 -40.4717C126.879 -30.2319 129.148 -19.9483 135.853 -10.2629C142.555 -0.579923 153.676 8.48545 170.83 16.3139C210.787 34.5486 243.493 29.3019 268.643 25.2675L268.65 25.2663C270.983 24.8921 273.251 24.5283 275.453 24.1947C288.449 22.2263 299.094 21.3236 307.464 25.4067C315.81 29.4785 321.981 38.5605 325.861 56.8019L326.441 56.6997C322.551 38.4101 316.328 29.1118 307.735 24.9194C299.164 20.7381 288.321 21.687 275.353 23.6512C273.149 23.985 270.882 24.3485 268.551 24.7223L268.545 24.7232L268.541 24.7239C243.397 28.756 210.864 33.973 171.086 15.8198C154.003 8.02378 142.978 -0.981339 136.349 -10.5583C129.722 -20.1328 127.474 -30.2987 127.983 -40.4411C128.557 -51.9049 132.651 -63.3337 137.92 -73.8284C135.405 -66.9259 133.686 -59.7875 133.328 -52.6297C132.815 -42.3898 135.085 -32.1063 141.789 -22.4209C148.491 -12.7379 159.612 -3.67253 176.766 4.15587C216.723 22.3906 249.429 17.1439 274.579 13.1095L274.581 13.1092C276.915 12.7347 279.185 12.3706 281.389 12.0368C294.385 10.0684 305.03 9.16567 313.4 13.2487C321.747 17.3205 327.917 26.4025 331.797 44.6439L332.377 44.5417C328.487 26.2521 322.265 16.9538 313.671 12.7614C305.1 8.58015 294.257 9.52906 281.289 11.4932C279.086 11.827 276.818 12.1905 274.488 12.5643L274.481 12.5653L274.477 12.5659C249.333 16.5981 216.801 21.815 177.023 3.66184C159.94 -4.1342 148.914 -13.1393 142.285 -22.7162C135.658 -32.2908 133.41 -42.4567 133.919 -52.599C134.224 -58.7005 135.527 -64.792 137.473 -70.738C137.3 -69.3224 137.175 -67.9044 137.104 -66.4856C136.591 -56.2458 138.861 -45.9622 145.565 -36.2768C152.268 -26.5938 163.388 -17.5284 180.542 -9.70004C220.499 8.53469 253.205 3.28803 278.355 -0.746399L278.357 -0.746694L278.369 -0.748591L278.376 -0.749782L278.388 -0.751633L278.398 -0.75326L278.409 -0.755087L278.419 -0.756689L278.419 -0.756735L278.422 -0.757208C280.734 -1.12794 282.982 -1.48839 285.166 -1.81916C298.161 -3.78758 308.807 -4.69026 317.176 -0.607235C325.523 3.46464 331.693 12.5465 335.573 30.788L336.154 30.6858C332.263 12.3962 326.041 3.09793 317.447 -1.09451C308.876 -5.27576 298.033 -4.32686 285.065 -2.36271C282.859 -2.02845 280.588 -1.66433 278.254 -1.28999C253.109 2.74215 220.577 7.95912 180.799 -10.1941C163.716 -17.9901 152.69 -26.9952 146.061 -36.5722C139.434 -46.1467 137.187 -56.3126 137.695 -66.4549C137.817 -68.888 138.097 -71.3194 138.514 -73.7407C138.65 -74.1124 138.788 -74.4834 138.928 -74.8538C139.565 -66.9247 142.097 -59.0561 147.295 -51.547C153.997 -41.864 165.118 -32.7986 182.272 -24.9702C222.229 -6.73546 254.935 -11.9821 280.085 -16.0166C282.42 -16.3912 284.691 -16.7554 286.895 -17.0893C299.891 -19.0577 310.537 -19.9604 318.906 -15.8774C327.253 -11.8055 333.423 -2.72359 337.303 15.5179L337.883 15.4156C333.993 -2.87393 327.771 -12.1722 319.177 -16.3647C310.606 -20.5459 299.763 -19.597 286.795 -17.6329C284.588 -17.2986 282.318 -16.9345 279.983 -16.5601L279.983 -16.5601C254.839 -12.528 222.306 -7.31107 182.529 -25.4642C165.446 -33.2603 154.42 -42.2654 147.791 -51.8423C142.377 -59.6643 139.886 -67.8809 139.433 -76.157C139.763 -76.9942 140.105 -77.8276 140.456 -78.6568C140.69 -79.0841 140.926 -79.5095 141.162 -79.933C142.533 -75.8548 144.521 -71.832 147.238 -67.9075C153.94 -58.2245 165.061 -49.1591 182.215 -41.3307C222.172 -23.0959 254.878 -28.3426 280.028 -32.377C282.363 -32.7517 284.634 -33.1158 286.838 -33.4498C299.834 -35.4182 310.479 -36.3209 318.849 -32.2379C327.196 -28.166 333.366 -19.0841 337.246 -0.842618L337.826 -0.944863C333.936 -19.2344 327.714 -28.5327 319.12 -32.7251C310.549 -36.9064 299.706 -35.9575 286.738 -33.9934C284.531 -33.6591 282.261 -33.295 279.926 -32.9206C254.782 -28.8885 222.249 -23.6715 182.472 -41.8247C165.389 -49.6208 154.363 -58.6259 147.734 -68.2028C144.93 -72.2533 142.91 -76.4097 141.552 -80.6254C142.642 -82.5556 143.757 -84.4441 144.88 -86.2842C145.144 -85.8797 145.415 -85.4761 145.693 -85.0736C152.396 -75.3906 163.517 -66.3252 180.671 -58.4968C220.627 -40.2621 253.334 -45.5087 278.483 -49.5432L278.486 -49.5436L278.491 -49.5444L278.514 -49.5481C280.838 -49.9209 283.099 -50.2834 285.294 -50.6159C298.289 -52.5844 308.935 -53.487 317.304 -49.404C325.651 -45.3321 331.821 -36.2502 335.702 -18.0087L336.282 -18.111C332.391 -36.4006 326.169 -45.6988 317.575 -49.8913C309.004 -54.0725 298.161 -53.1236 285.194 -51.1595C283.001 -50.8274 280.745 -50.4657 278.427 -50.094L278.421 -50.0931L278.414 -50.092L278.407 -50.0909L278.384 -50.0872L278.382 -50.0868C253.238 -46.0546 220.705 -40.8377 180.927 -58.9909C163.844 -66.7869 152.819 -75.792 146.19 -85.3689C145.853 -85.8546 145.528 -86.3418 145.215 -86.8304C146.836 -89.4713 148.471 -92.0105 150.067 -94.4286C156.729 -87.8985 165.823 -81.7659 177.914 -76.248C217.871 -58.0133 250.577 -63.2599 275.727 -67.2944L275.734 -67.2956C278.067 -67.6697 280.335 -68.0335 282.537 -68.3671C295.533 -70.3355 306.178 -71.2382 314.548 -67.1552C322.895 -63.0833 329.065 -54.0014 332.945 -35.7599L333.525 -35.8622C329.635 -54.1517 323.413 -63.45 314.819 -67.6424C306.248 -71.8237 295.405 -70.8748 282.437 -68.9106C280.23 -68.5764 277.96 -68.2123 275.625 -67.838C250.481 -63.8058 217.948 -58.5888 178.171 -76.742C166.064 -82.267 157 -88.3991 150.387 -94.9117C150.635 -95.2864 150.882 -95.6581 151.128 -96.0267L150.625 -96.3205C150.406 -95.9927 150.187 -95.6625 149.966 -95.3299C149.753 -95.5442 149.542 -95.7588 149.333 -95.9739C151.899 -100.312 154.544 -104.408 157.065 -108.185L156.561 -108.478C154.072 -104.749 151.457 -100.701 148.914 -96.4111C148.244 -97.1162 147.601 -97.8256 146.986 -98.5388C151.184 -107.125 156.221 -115.12 160.841 -122.041L160.338 -122.334C155.764 -115.483 150.764 -107.555 146.572 -99.0245C145.607 -100.168 144.711 -101.322 143.881 -102.484C148.521 -115.347 155.972 -127.425 162.571 -137.311L162.067 -137.605C155.54 -127.826 148.144 -115.855 143.468 -103.07L143.433 -103.12C142.391 -104.626 141.457 -106.146 140.625 -107.679C144.145 -124.641 154.033 -140.966 162.514 -153.671L162.01 -153.965C153.649 -141.439 143.861 -125.316 140.194 -108.492C139.249 -110.316 138.446 -112.157 137.775 -114.011C137.786 -114.424 137.802 -114.838 137.823 -115.252C138.84 -135.555 150.898 -155.749 160.969 -170.837L160.466 -171.131C150.441 -156.113 138.365 -135.924 137.247 -115.555C135.396 -121.3 134.774 -127.156 135.067 -133.003C136.084 -153.306 148.141 -173.5 158.213 -188.589L157.709 -188.882ZM140.235 -81.2693C139.92 -80.1567 139.63 -79.04 139.366 -77.92L139.367 -77.8776C139.55 -78.2166 139.733 -78.5543 139.918 -78.8909C140.214 -79.5889 140.517 -80.2837 140.826 -80.9753C140.741 -81.2503 140.658 -81.5256 140.579 -81.8011L140.442 -81.5908L140.235 -81.2693ZM141.004 -82.4552C141.065 -82.233 141.129 -82.0109 141.194 -81.789C141.715 -82.9329 142.254 -84.0675 142.807 -85.1915C142.211 -84.2966 141.609 -83.3841 141.004 -82.4552ZM143.073 -85.7294C143.389 -86.366 143.71 -86.9991 144.035 -87.6286C143.669 -88.2311 143.319 -88.8357 142.985 -89.4422C142.19 -87.3923 141.462 -85.3201 140.816 -83.2312C141.428 -84.1667 142.036 -85.0848 142.636 -85.9842L143.073 -85.7294ZM139.685 -81.4906C139.848 -82.0664 140.018 -82.6411 140.194 -83.2145C140.018 -83.9054 139.858 -84.5976 139.714 -85.2909C139.582 -84.1033 139.484 -82.9144 139.425 -81.7251C139.413 -81.4967 139.403 -81.2683 139.395 -81.0399C139.491 -81.1906 139.588 -81.3408 139.685 -81.4906ZM144.53 -86.8296C144.053 -86.0509 143.578 -85.2633 143.105 -84.4673C143.526 -85.3332 143.956 -86.193 144.394 -87.0464L144.464 -86.9346L144.53 -86.8296ZM149.646 -94.8458C148.076 -92.4706 146.467 -89.9755 144.867 -87.3789C144.812 -87.4677 144.757 -87.5565 144.702 -87.6454C146.09 -90.3222 147.547 -92.934 149.033 -95.4653C149.235 -95.2584 149.439 -95.0519 149.646 -94.8458ZM148.612 -95.9012C147.954 -96.5898 147.321 -97.2827 146.714 -97.9794C145.476 -95.4163 144.314 -92.8017 143.262 -90.1483C143.606 -89.5072 143.968 -88.8682 144.347 -88.2314C145.717 -90.8577 147.151 -93.4191 148.612 -95.9012ZM142.619 -90.1203C141.863 -88.199 141.164 -86.2571 140.535 -84.2993C140.311 -85.2637 140.119 -86.2305 139.958 -87.1991C140.247 -89.2211 140.635 -91.2376 141.109 -93.2435C141.568 -92.1975 142.071 -91.1562 142.619 -90.1203ZM146.297 -98.4632C145.085 -95.9661 143.943 -93.4186 142.903 -90.8324C142.329 -91.9455 141.809 -93.0646 141.339 -94.1891C141.98 -96.7566 142.758 -99.3055 143.646 -101.825C144.467 -100.695 145.35 -99.5744 146.297 -98.4632ZM143.228 -102.408C143.13 -102.547 143.033 -102.686 142.937 -102.825C142.027 -104.139 141.199 -105.465 140.448 -106.8C139.984 -104.41 139.649 -102.009 139.464 -99.6042C139.881 -98.099 140.38 -96.6004 140.965 -95.1105C141.605 -97.5648 142.368 -100 143.228 -102.408ZM140.721 -94.1524C140.207 -95.3943 139.754 -96.6423 139.358 -97.8953C139.222 -94.9852 139.314 -92.0734 139.672 -89.1746C139.96 -90.8399 140.313 -92.5001 140.721 -94.1524ZM140.006 -107.603C139.578 -105.515 139.247 -103.417 139.026 -101.314C138.158 -104.992 137.761 -108.704 137.754 -112.422C138.401 -110.804 139.149 -109.197 140.006 -107.603ZM109.684 -21.5154C110.709 -41.9763 122.848 -62.2787 132.917 -77.3641L133.42 -77.0704C123.349 -61.9817 111.292 -41.7882 110.274 -21.4847C109.766 -11.3424 112.013 -1.17651 118.641 8.39804C125.27 17.975 136.295 26.9801 153.378 34.7761C193.156 52.9293 225.689 47.7124 250.833 43.6802L250.837 43.6796L250.843 43.6786C253.174 43.3048 255.441 42.9413 257.645 42.6075C270.613 40.6433 281.456 39.6944 290.027 43.8757C298.62 48.0682 304.843 57.3664 308.733 75.656L308.153 75.7582C304.273 57.5168 298.102 48.4348 289.756 44.363C281.386 40.28 270.741 41.1827 257.745 43.1511C255.541 43.4849 253.272 43.8489 250.938 44.2234L250.935 44.2238C225.785 48.2582 193.079 53.5049 153.122 35.2702C135.968 27.4418 124.847 18.3764 118.145 8.69336C111.44 -0.992031 109.17 -11.2755 109.684 -21.5154ZM121.898 -70.1606C111.828 -55.0751 99.6893 -34.7728 98.6641 -14.3118C98.151 -4.07199 100.421 6.21152 107.125 15.8969C113.828 25.5799 124.948 34.6453 142.102 42.4737C182.059 60.7084 214.766 55.4618 239.915 51.4274C242.251 51.0527 244.521 50.6886 246.726 50.3546C259.721 48.3862 270.367 47.4835 278.736 51.5665C287.083 55.6384 293.253 64.7203 297.133 82.9618L297.714 82.8596C293.823 64.57 287.601 55.2717 279.007 51.0793C270.436 46.898 259.593 47.8469 246.625 49.8111C244.419 50.1453 242.148 50.5094 239.814 50.8838C214.669 54.9159 182.137 60.1329 142.359 41.9797C125.276 34.1836 114.251 25.1785 107.621 15.6016C100.994 6.02705 98.7467 -4.13882 99.2549 -14.2812C100.272 -34.5847 112.329 -54.7781 122.401 -69.8669L121.898 -70.1606ZM86.7621 -8.13682C87.7874 -28.5977 99.9265 -48.9001 109.996 -63.9856L110.499 -63.6919C100.427 -48.6031 88.3704 -28.4097 87.353 -8.10617C86.8448 2.0362 89.092 12.2021 95.7195 21.7766C102.349 31.3536 113.374 40.3587 130.457 48.1547C170.235 66.3079 202.767 61.0909 227.912 57.0588C230.246 56.6845 232.517 56.3203 234.724 55.9861C247.691 54.0219 258.534 53.073 267.105 57.2543C275.699 61.4467 281.921 70.745 285.812 89.0345L285.231 89.1368C281.351 70.8953 275.181 61.8134 266.834 57.7415C258.465 53.6585 247.819 54.5612 234.824 56.5296C232.619 56.8636 230.349 57.2277 228.013 57.6024C202.864 61.6368 170.157 66.8835 130.2 48.6487C113.047 40.8203 101.926 31.755 95.2231 22.0719C88.5189 12.3865 86.2491 2.10302 86.7621 -8.13682ZM97.5681 -58.4547C87.4989 -43.3693 75.3598 -23.0669 74.3345 -2.60598C73.8215 7.63387 76.0914 17.9174 82.7955 27.6028C89.4981 37.2858 100.619 46.3512 117.773 54.1796C157.729 72.4143 190.436 67.1677 215.586 63.1332L215.59 63.1325L215.602 63.1306L215.61 63.1293L215.614 63.1286L215.629 63.1263C217.949 62.7542 220.205 62.3924 222.396 62.0605C235.392 60.092 246.037 59.1894 254.407 63.2724C262.753 67.3443 268.924 76.4262 272.804 94.6677L273.384 94.5654C269.493 76.2758 263.271 66.9776 254.678 62.7851C246.107 58.6039 235.264 59.5528 222.296 61.5169C220.089 61.8512 217.818 62.2153 215.484 62.5896L215.484 62.5897C190.34 66.6218 157.807 71.8387 118.029 53.6855C100.946 45.8895 89.921 36.8844 83.2919 27.3075C76.6644 17.7329 74.4172 7.56704 74.9254 -2.57533C75.9428 -22.8788 87.9999 -43.0723 98.0713 -58.161L97.5681 -58.4547ZM61.6552 2.6088C62.6804 -17.8521 74.8195 -38.1545 84.8888 -53.24L85.392 -52.9463C75.3205 -37.8575 63.2634 -17.6641 62.246 2.63944C61.7378 12.7818 63.985 22.9477 70.6125 32.5222C77.2416 42.0992 88.267 51.1043 105.35 58.9003C145.128 77.0535 177.661 71.8365 202.805 67.8044L202.807 67.804L202.817 67.8025C205.147 67.4288 207.413 67.0654 209.617 66.7317C222.584 64.7675 233.427 63.8186 241.998 67.9999C250.592 72.1923 256.814 81.4906 260.705 99.7802L260.124 99.8824C256.244 81.641 250.074 72.559 241.727 68.4872C233.358 64.4041 222.712 65.3068 209.717 67.2752C207.512 67.6092 205.242 67.9734 202.906 68.348C177.757 72.3824 145.05 77.6291 105.094 59.3944C87.9396 51.5659 76.8187 42.5006 70.1162 32.8175C63.412 23.1322 61.1421 12.8486 61.6552 2.6088ZM72.1694 -48.0788C62.1001 -32.9933 49.961 -12.6909 48.9358 7.76998C48.4227 18.0098 50.6926 28.2933 57.3968 37.9787C64.0993 47.6617 75.2202 56.7271 92.3741 64.5555C132.331 82.7903 165.037 77.5436 190.187 73.5092C192.522 73.1345 194.793 72.7704 196.997 72.4364C209.993 70.468 220.638 69.5653 229.008 73.6484C237.355 77.7202 243.525 86.8021 247.405 105.044L247.985 104.941C244.095 86.6518 237.873 77.3535 229.279 73.1611C220.708 68.9798 209.865 69.9287 196.897 71.8929C194.691 72.2271 192.42 72.5911 190.086 72.9654L190.085 72.9656C164.941 76.9977 132.409 82.2147 92.6305 64.0615C75.5476 56.2655 64.5222 47.2603 57.8931 37.6834C51.2657 28.1089 49.0184 17.943 49.5266 7.80063C50.544 -12.5029 62.6011 -32.6963 72.6726 -47.7851L72.1694 -48.0788ZM36.3279 13.0761C37.3532 -7.3848 49.4922 -27.6871 59.5615 -42.7726L60.0647 -42.4789C49.9932 -27.3902 37.9361 -7.19673 36.9188 13.1068C36.4106 23.2491 38.6578 33.415 45.2853 42.9896C51.9144 52.5665 62.9397 61.5716 80.0227 69.3676C119.801 87.5208 152.333 82.3039 177.478 78.2717L177.48 78.2713C179.814 77.8971 182.083 77.5331 184.289 77.199C197.257 75.2349 208.1 74.286 216.671 78.4672C225.265 82.6597 231.487 91.9579 235.377 110.247L234.797 110.35C230.917 92.1083 224.747 83.0264 216.4 78.9545C208.031 74.8715 197.385 75.7742 184.389 77.7426C182.185 78.0765 179.914 78.4407 177.579 78.8153C152.429 82.8497 119.723 88.0964 79.7662 69.8617C62.6123 62.0333 51.4915 52.9679 44.7889 43.2849C38.0847 33.5995 35.8148 23.316 36.3279 13.0761ZM47.1851 -37.1777C37.1159 -22.0922 24.9768 -1.78983 23.9515 18.6711C23.4384 28.9109 25.7083 39.1944 32.4125 48.8798C39.1151 58.5629 50.2359 67.6282 67.3899 75.4567C107.346 93.6914 140.053 88.4447 165.203 84.4103L165.207 84.4096C167.541 84.0352 169.81 83.6713 172.013 83.3375C185.009 81.3691 195.654 80.4664 204.024 84.5495C212.37 88.6213 218.541 97.7032 222.421 115.945L223.001 115.842C219.11 97.5529 212.888 88.2546 204.295 84.0622C195.724 79.8809 184.881 80.8298 171.913 82.794C169.706 83.1282 167.435 83.4924 165.101 83.8667C139.957 87.8988 107.424 93.1158 67.6463 74.9626C50.5633 67.1666 39.538 58.1614 32.9089 48.5845C26.2814 39.01 24.0342 28.8441 24.5424 18.7017C25.5597 -1.60177 37.6169 -21.7952 47.6883 -36.884L47.1851 -37.1777ZM11.8919 24.6541C12.9172 4.19317 25.0563 -16.1092 35.1255 -31.1947L35.6287 -30.901C25.5572 -15.8122 13.5001 4.38124 12.4828 24.6847C11.9746 34.8271 14.2218 44.993 20.8493 54.5675C27.4784 64.1445 38.5037 73.1496 55.5867 80.9456C95.3647 99.0988 127.897 93.8818 153.042 89.8497L153.042 89.8495C155.376 89.4753 157.647 89.1112 159.853 88.777C172.821 86.8128 183.664 85.8639 192.235 90.0452C200.829 94.2376 207.051 103.536 210.941 121.825L210.361 121.928C206.481 103.686 200.311 94.6043 191.964 90.5325C183.595 86.4494 172.949 87.3521 159.953 89.3205C157.749 89.6545 155.478 90.0187 153.143 90.3933C127.993 94.4277 95.2869 99.6744 55.3303 81.4397C38.1763 73.6112 27.0555 64.5459 20.3529 54.8628C13.6487 45.1775 11.3788 34.8939 11.8919 24.6541ZM23.4424 -24.7582C13.3732 -9.67275 1.23409 10.6296 0.208854 31.0905C-0.304239 41.3304 1.96565 51.6139 8.66985 61.2993C15.3724 70.9823 26.4933 80.0477 43.6472 87.8761C83.6038 106.111 116.31 100.864 141.46 96.8297L141.466 96.8288C143.799 96.4545 146.067 96.0906 148.27 95.757C161.266 93.7886 171.912 92.8859 180.281 96.9689C188.628 101.041 194.798 110.123 198.678 128.364L199.258 128.262C195.368 109.972 189.146 100.674 180.552 96.4816C171.981 92.3004 161.138 93.2493 148.17 95.2134C145.963 95.5477 143.693 95.9118 141.358 96.2861L141.358 96.2861C116.214 100.318 83.6815 105.535 43.9036 87.3821C26.8206 79.586 15.7953 70.5809 9.16619 61.004C2.53872 51.4294 0.291507 41.2636 0.799708 31.1212C1.81706 10.8177 13.8742 -9.37575 23.9456 -24.4645L23.4424 -24.7582Z" fill="url(#paint0_radial_39_236)" fill-opacity="0.58"/>
<defs>
<radialGradient id="paint0_radial_39_236" cx="0" cy="0" r="1" gradientUnits="userSpaceOnUse" gradientTransform="translate(146.375 11.4073) rotate(33.312) scale(155.973 157.648)">
<stop stop-color="white"/>
<stop offset="1" stop-color="#1E1E1E" stop-opacity="0"/>
<stop offset="1" stop-color="#0E0E35" stop-opacity="0"/>
<stop offset="1" stop-color="white" stop-opacity="0"/>
</radialGradient>
</defs>
</svg>
